<svg xmlns="http://www.w3.org/2000/svg" viewBox="0 0 175.31 206.41"><defs><style>.cls-1{fill:#15f0d8;}</style></defs><title>Asset 13</title><g id="Layer_2" data-name="Layer 2"><g id="Layer_1-2" data-name="Layer 1"><path class="cls-1" d="M53.73,97.41H13.32C6,97.41.12,92.57.12,86.59V10.82C.12,4.85,6,0,13.32,0H90.84C98.13,0,104,4.85,104,10.82V37.21c0,3-3,5.41-6.6,5.41H66.92c-3.64,0-6.6,2.42-6.6,5.41V92C60.33,95,57.37,97.41,53.73,97.41Z"/><path class="cls-1" d="M115.72,119.82v28.41c0,6-5.87,10.82-13.11,10.82H73.53c-7.24,0-13.11,4.85-13.11,10.82v25.71c0,6-5.87,10.82-13.11,10.82H13.11C5.87,206.41,0,201.57,0,195.59V119.82c0-6,5.9-10.82,13.11-10.82h89.49C109.85,109,115.72,113.85,115.72,119.82Z"/><path class="cls-1" d="M175.31,10.82V86.59c0,6-5.87,10.82-13.11,10.82H78.59C75,97.41,72,95,72,92V60.21c0-3,2.94-5.41,6.56-5.41h31.15a6.49,6.49,0,0,0,6-5.67V10.56C116.3,4.85,122.17,0,129.41,0H162.2C169.44,0,175.31,4.85,175.31,10.82Z"/></g></g></svg>
