<?xml version="1.0" standalone="no"?>
<!DOCTYPE svg PUBLIC "-//W3C//DTD SVG 20010904//EN"
 "http://www.w3.org/TR/2001/REC-SVG-20010904/DTD/svg10.dtd">
<svg version="1.0" xmlns="http://www.w3.org/2000/svg"
 width="307.000000pt" height="307.000000pt" viewBox="0 0 307.000000 307.000000"
 preserveAspectRatio="xMidYMid meet">
<metadata>
Created by potrace 1.11, written by Peter Selinger 2001-2013
</metadata>
<g transform="translate(0.000000,307.000000) scale(0.100000,-0.100000)"
fill="#000000" stroke="none">
<path d="M356 3055 c-54 -19 -85 -44 -108 -85 -17 -33 -18 -65 -16 -640 l3
-605 23 -33 c13 -18 42 -42 65 -55 41 -21 53 -22 367 -25 179 -2 340 0 359 3
18 4 44 17 57 30 l24 24 0 348 c0 389 -1 383 68 403 21 5 145 10 283 10 l246
0 27 26 26 27 0 226 c0 261 -4 275 -85 326 l-48 30 -626 2 c-520 2 -633 0
-665 -12z"/>
<path d="M2092 3060 c-54 -13 -112 -58 -133 -103 -17 -38 -19 -69 -19 -340 0
-194 -4 -305 -11 -319 -23 -42 -63 -48 -327 -48 -237 0 -251 -1 -276 -21 l-26
-20 0 -273 0 -273 26 -24 26 -24 641 -3 c456 -2 657 0 695 8 61 13 118 57 138
107 18 42 21 1174 3 1220 -17 46 -69 92 -123 108 -39 12 -108 15 -315 14 -146
-1 -281 -5 -299 -9z"/>
<path d="M335 1431 c-22 -10 -53 -33 -70 -50 l-30 -32 -3 -616 -2 -616 24 -37
c14 -22 44 -47 68 -59 42 -20 59 -21 358 -21 298 0 316 1 357 21 23 11 53 35
65 52 22 31 23 43 28 273 l5 241 27 35 c53 69 70 72 383 78 307 5 309 6 370
70 l30 31 0 274 0 274 -30 32 c-16 17 -48 40 -70 50 -38 18 -80 19 -755 19
-675 0 -717 -1 -755 -19z"/>
</g>
</svg>
