<svg xmlns="http://www.w3.org/2000/svg" viewBox="0 0 1095.76 986.47"><defs><style>.cls-1{fill:none;stroke:#fff;stroke-miterlimit:10}</style></defs><title>Asset 7</title><g id="Layer_2" data-name="Layer 2"><path class="cls-1" d="M300.88 984.42c30-3 68.05-1 115.77-20.56 18.69-7.66 35.57-19 51.59-31.27 43.57-33.51 97.06-96.72 153.63-145.82a599.65 599.65 0 0 1 201.19-114.9c43.68-14.71 92.38-24.14 135.14-7 14.06 5.65 28.85 18 25.85 32.84-3.3 16.35-27.24 20.57-40.59 10.58S926 680.5 923.18 664.06c-17.3-101.64-14.12-191.49-11.3-235.64l.76-12.06a317.57 317.57 0 0 1 9.16-58.77l.23-.88c6.35-24.57 15.06-48.67 27.55-70.83 11.59-20.56 26.49-39.81 45-54.62 17.53-14 40.48-25.45 63.5-20.62 19.69 4.13 38.32 22.17 37.13 43.36-1.17 20.82-20.45 33.63-38.26 40.09-23.77 8.62-49.76 11-74.89 11a349.18 349.18 0 0 1-79.36-9.53 519.79 519.79 0 0 1-75.28-24.1c-24.66-9.86-48.7-21.19-72.32-33.31-23.88-12.25-47.39-25.22-70.65-38.62S638 172.2 615.25 157.8c-23-14.53-45.52-29.68-68.07-44.82-22.4-15-44.84-30-67.89-44.07C456.92 55.3 434 42.58 410.08 31.82s-48.46-19.45-73.93-25.06-52.06-8.1-78.09-4.76c-23.64 3.07-47.13 11.1-65.92 26.11a105.25 105.25 0 0 0-36.68 57.49c-1.67 7.06-3.11 15.57-2.58 22.82a176.6 176.6 0 0 0 5.95 33.42q.45 1.69.93 3.37a166.83 166.83 0 0 0 48.41 77.19l13.49 12.28c5.18 4.57 10.22 9.3 15.22 14.07 19.28 18.39 38.68 37.92 63.19 49.27 21.81 10.1 51 13 69.73-5.08 8.45-8.19 13.16-20.66 8.95-32.12-4.06-11-14.95-18.31-26-20.92-25.38-6-47.47 12.25-58.52 33.54-11.83 22.8-15 49.79-15.54 75.11-.64 29.66 2.86 59.27 6.32 88.68 3.48 29.57 7 59.21 7 89 0 28.6-3.47 57.22-12.32 84.49-8.15 25.08-20.74 48.7-37.93 68.76a177.49 177.49 0 0 1-28.87 27A137.53 137.53 0 0 1 165.52 729l-18 4.68-72.73 17.44c-20.24 4.85-45.63 13.73-64.15-.5s-8.12-38.41 3.48-53.56c5.91-7.71 14-13.77 24.17-12.35 9.76 1.36 17.8 8.2 22.68 16.48 5.46 9.28 7.65 20.1 9.78 30.52 2.44 11.92 4.42 23.92 6.28 35.94 3.7 23.91 6.9 47.94 12.2 71.57 4.51 20.14 10.66 40 19.65 58.59 8.57 17.74 19.73 34.4 34.11 48 14.78 14 32.7 23.9 52 30.17 19.79 6.43 40.64 9.17 61.38 9.85q7.7.25 15.4.14z" id="Layer_1-2" data-name="Layer 1"/></g></svg>