<svg id="Layer_1" xmlns="http://www.w3.org/2000/svg" viewBox="0 0 2828.2 846.1"><style>.st0{fill:#757d81}.st1{fill:#cfcecb}.st2{fill:#f4b51a}.st3{fill:#dd462f}.st4{fill:#517dbf}.st5{fill:#4f71a9}.st6{fill:#c3432f}.st7{fill:#d19d2a}.st8{fill:#fff}.st9{fill:#cac8c6}.st10{fill:#4472b8}.st11{fill:#fff;stroke:#4472b8;stroke-miterlimit:10}.st12{fill:#f3b01c}.st13{fill:#de482f}</style><path class="st0" d="M2589.6 244.8c7.3-3 7.9-3.6 5.2-11.3-15.5-44.3-73.9-68.2-123.6-47.4-39.2 16.4-67.6 57.8-67.6 104.2 0 62.5 45.1 118.1 106.4 118.1 28.1 0 48.1-3.9 65.9-15.2 3.8-3.5 25.3-20.7 25.5-24.4 0-.9-3 1.8-7.7 4.4-13.8 7.3-34.6 10.1-50.9 10.4-32.9.6-59.2-21.9-76.4-48.5-11-17.2-18.2-36.8-20-57.8-2.7-32.4 5.2-69.6 41.7-78.7 24.3-6.1 47.4 7.6 56.3 31 4.1 10.6 1.6 16.2-8.2 20.2l-88 36.7 30 1.9c35.7-14.9 75.7-28.8 111.4-43.6zM2318.8 64.5h65.7c-9.1 5.9-12.2 8.4-16.1 14.6-2.8 4.5-3.5 12.9-4 20.5-3.8 87.7-1.5 176-2.1 263.7.4 23.9 9.8 21.1 40.8 20.2-4.7 4-12.3 11.8-18.2 15.2-28 0-54.8-.6-82.8-.6 10.6-10.9 16-17.9 15.3-45.2.6-91.6-3.1-179.6 2.5-267.8-13.1.4-25.1.2-38.2.6 12.3-6.4 24.1-15.4 37.1-21.2z"/><path class="st0" d="M2252.2 397.6c-14.5-10.8-39.5-25.7-37.9-46.2.5-7 5.5-14.3 15.4-20.1 17.3-10.2 29.1-23.5 35-39 6.2-16.4 5.3-34.3-.8-50.4-5.7-15.1-16-28.7-29.5-38.2h32l28.1-18.2c-40-.3-77.9-.3-118.7-.3-39.3 0-74.7 19-90.6 53.2-7.3 15.8-10.2 35.8-5.6 55.1 9.3 37.9 48.9 63 87.3 57.2 4.2-.6 5.6-2 3.4 1.9-8.5 14.9-2.3 37.2 14.4 48.1-11.1-.8-22.8-1-36 .5-47 5.5-99 29.6-96.3 80.3 2.1 39.2 41.8 68 104.6 68.3 50.6-.2 98.3-16.2 118.3-52 20.9-37.6 8.5-76.5-23.1-100.2zm-127.8-115.3c-11-42.9.4-70.1 26.8-78.4 31.3-9.8 64.8 18.5 72.4 64.8 5 30.4-2.7 59.1-30.1 66.7-28 7.9-59.1-13.9-69.1-53.1zm124.6 200c-2.7 23.8-25.5 42.5-64.5 44.9-41.7 2.5-97.8-14-87.4-68.8 5.5-29.2 44.3-44.3 76.3-45.4 8.9-.3 17.9.4 26.8.7 4.7 3.5 9.6 6.8 14.7 10 27.5 17.5 36.3 38.9 34.1 58.6zM2055.4 287.9c-3.5-58.7-42.8-108.8-118.2-108.8-65.2 0-118.4 50.9-118.4 113.2 0 71.3 61.9 120.2 132.9 112.6 59-6.2 107.2-58.5 103.7-117zm-95.7 99.4c-39.5 9.1-81.3-23.6-91.8-79.3-11.5-61.1 7.5-101.2 44.7-111.1 44.2-11.7 89.2 32.9 95.7 98.5 4.5 43-10 83-48.6 91.9zM1798.5 287.9c-3.6-58.7-43.3-108.8-119.6-108.8-66 0-119.8 50.9-119.8 113.2 0 71.3 62.7 120.2 134.5 112.6 59.7-6.2 108.5-58.5 104.9-117zm-96.7 99.4c-40 9.1-82.3-23.6-92.9-79.3-11.6-61.1 7.6-101.2 45.3-111.1 44.7-11.7 90.2 32.9 96.9 98.5 4.3 43-10.3 83-49.3 91.9zM1489.5 147.8l34.3-34.9c-58.2-48.2-157.9-54.5-224.1-21-57.5 29.1-99.3 86.8-101.4 151.3-2.1 67.9 37.3 121.6 77.3 148.6 66.1 44.6 180.7 34.6 249.7-.2V314l16.1-18.8h-100.5l-37.2 21 72.3-2.2v62.7c0 8.9.1 10.3-14.5 15.1-20.6 5.4-43.9 6.5-65.2 4.7-72.2-6-127.2-63.1-140.3-134.2-12.4-67.5 19.5-131.4 73.3-157.7 26.3-12.9 57.8-18.9 92-8 21.4 6.9 40.9 19.2 57.9 36.3l-11.8 21.5 22.1-6.6z"/><g><path class="st0" d="M1282.1 589.8c-22.6 0-40.4 7.2-53.4 21.7s-19.5 34.3-19.5 59.5c0 25.7 6.1 45.7 18.4 60 12.3 14.2 29.8 21.3 52.6 21.3 15.1 0 29-1.9 41.7-5.8v11.1c-11.9 4.2-26.8 6.3-44.7 6.3-25.3 0-45.3-8.2-59.8-24.6-14.6-16.4-21.8-39.2-21.8-68.6 0-18.3 3.5-34.5 10.4-48.5 7-14 16.9-24.8 30-32.4 13-7.6 28.2-11.4 45.5-11.4 17.6 0 33.3 3.3 47.2 9.9l-5.1 11.3c-13.2-6.5-27-9.8-41.5-9.8zM1369 761.4h-12.2v-192h12.2v192zM1524.1 694.1c0 21.9-5.3 39-15.9 51.3-10.6 12.3-25.2 18.4-43.9 18.4-11.8 0-22.1-2.8-31.1-8.5s-15.8-13.8-20.6-24.4c-4.8-10.6-7.2-22.9-7.2-36.8 0-21.9 5.3-38.9 15.9-51.1 10.6-12.2 25.2-18.3 43.7-18.3 18.4 0 32.9 6.2 43.4 18.6 10.5 12.3 15.7 29.3 15.7 50.8zm-105.8 0c0 18.4 4 32.8 12.2 43.1 8.1 10.3 19.6 15.5 34.4 15.5 14.8 0 26.3-5.2 34.4-15.5 8.1-10.3 12.2-24.7 12.2-43.1 0-18.5-4.1-32.9-12.3-43-8.2-10.2-19.7-15.3-34.5-15.3s-26.2 5.1-34.2 15.2c-8.2 10.2-12.2 24.6-12.2 43.1zM1567.5 627.3v86.8c0 13.5 2.8 23.3 8.5 29.4 5.7 6.1 14.5 9.2 26.4 9.2 16 0 27.7-4 35.2-12.1 7.5-8.1 11.3-21.2 11.3-39.4v-74h12.1v134.1h-10.4l-2.2-18.5h-.7c-8.7 14-24.2 21-46.5 21-30.5 0-45.8-16.3-45.8-49v-87.6h12.1zM1750.7 624.7c9.7 0 18.1 1.8 25.2 5.3 7.1 3.5 13.4 9.6 19 18.1h.7c-.5-10.4-.7-20.5-.7-30.5v-48.2h12.1v191.9h-8l-3.1-20.5h-1c-10.2 15.3-24.8 22.9-43.9 22.9-18.5 0-32.7-5.8-42.4-17.3-9.8-11.5-14.7-28.3-14.7-50.3 0-23.2 4.9-40.9 14.6-53.2 9.6-12.1 23.7-18.2 42.2-18.2zm0 11.1c-14.6 0-25.6 5.1-33 15.4-7.4 10.3-11 25.2-11 44.8 0 38 14.8 57 44.3 57 15.1 0 26.2-4.4 33.3-13.2 7.1-8.8 10.6-23.3 10.6-43.5v-2.1c0-20.7-3.5-35.6-10.4-44.7-7-9.2-18.3-13.7-33.8-13.7zM2026.9 632.8c0 17.4-5.9 30.8-17.8 40.1-11.8 9.3-28.6 13.9-50.3 13.9h-27.9v74.5h-12.6V581h44.2c42.9 0 64.4 17.3 64.4 51.8zm-96 43.2h24.8c20.3 0 35-3.4 44-10.1 9-6.7 13.6-17.6 13.6-32.6 0-13.9-4.3-24.2-12.8-30.9-8.6-6.7-21.8-10-39.7-10h-29.9V676zM2068.7 761.4h-12.2v-192h12.2v192zM2196.8 761.4l-3.1-21.2h-1c-6.7 8.6-13.7 14.7-20.8 18.3-7.1 3.6-15.5 5.4-25.2 5.4-13.2 0-23.4-3.4-30.7-10.1-7.3-6.7-11-16.1-11-28 0-13.1 5.4-23.2 16.3-30.5 10.9-7.2 26.7-11.1 47.3-11.5l25.5-.7v-8.9c0-12.8-2.6-22.4-7.8-28.9-5.2-6.5-13.5-9.7-25-9.7-12.4 0-25.3 3.5-38.6 10.4l-4.6-10.6c14.7-6.9 29.3-10.4 43.7-10.4 14.7 0 25.7 3.8 33 11.5 7.3 7.7 10.9 19.6 10.9 35.8v89.2h-8.9zm-49.3-8.7c14.3 0 25.6-4.1 33.9-12.3 8.3-8.2 12.4-19.5 12.4-34.1v-13.2l-23.4 1c-18.8.9-32.3 3.9-40.3 8.8-8 5-12 12.7-12 23.2 0 8.4 2.6 14.9 7.7 19.6 5 4.7 12.3 7 21.7 7zM2283 753c7.7 0 14.5-.7 20.2-2v9.9c-5.9 2-12.8 3-20.5 3-11.8 0-20.6-3.2-26.2-9.5-5.6-6.3-8.4-16.3-8.4-29.9v-86.6h-19.9v-7.2l19.9-5.6 6.2-30.3h6.3v32.4h39.4v10.6h-39.4v84.9c0 10.3 1.8 17.9 5.4 22.8 3.6 5 9.2 7.5 17 7.5zM2380.4 637.9h-31.6v123.5h-12.2V637.9h-24.9v-7.2l24.9-4.6v-10.4c0-16.4 3-28.5 9.1-36.2 6-7.7 15.9-11.5 29.7-11.5 7.4 0 14.8 1.1 22.2 3.3l-2.8 10.6c-6.6-2.1-13.1-3.1-19.6-3.1-9.6 0-16.3 2.8-20.3 8.4-4 5.6-6 14.8-6 27.4v12.5h31.6v10.8zM2516 694.1c0 21.9-5.3 39-15.9 51.3-10.6 12.3-25.2 18.4-43.9 18.4-11.8 0-22.1-2.8-31.1-8.5s-15.8-13.8-20.6-24.4c-4.8-10.6-7.2-22.9-7.2-36.8 0-21.9 5.3-38.9 15.9-51.1 10.6-12.2 25.2-18.3 43.7-18.3 18.4 0 32.9 6.2 43.4 18.6 10.4 12.3 15.7 29.3 15.7 50.8zm-105.8 0c0 18.4 4 32.8 12.2 43.1 8.1 10.3 19.6 15.5 34.4 15.5 14.8 0 26.3-5.2 34.4-15.5 8.1-10.3 12.2-24.7 12.2-43.1 0-18.5-4.1-32.9-12.3-43-8.2-10.2-19.7-15.3-34.5-15.3s-26.2 5.1-34.2 15.2c-8.2 10.2-12.2 24.6-12.2 43.1zM2603.2 624.7c5.7 0 11.8.6 18.3 1.7l-2.4 11.7c-5.6-1.4-11.4-2.1-17.4-2.1-11.4 0-20.8 4.9-28.1 14.6-7.3 9.7-11 22-11 36.8v74h-12.2V627.3h10.4l1.2 24.2h.9c5.5-9.9 11.4-16.8 17.6-20.8 6.2-4 13.8-6 22.7-6zM2816.1 761.4v-88c0-13.1-2.5-22.6-7.6-28.6s-12.9-9-23.4-9c-13.7 0-23.9 3.8-30.5 11.3-6.6 7.6-9.9 19.5-9.9 35.7v78.6h-12.5v-91.7c0-22.6-10.4-33.9-31.1-33.9-14.1 0-24.3 4.1-30.7 12.3-6.4 8.2-9.6 21.3-9.6 39.3v74h-12.2V627.3h10.1l2.6 18.4h.7c3.7-6.7 9-11.8 15.8-15.5 6.8-3.7 14.3-5.5 22.6-5.5 21.1 0 34.7 7.9 40.7 23.8h.5c4.3-7.6 10.2-13.5 17.6-17.6 7.4-4.1 15.7-6.2 25.1-6.2 14.6 0 25.6 3.9 32.9 11.7 7.3 7.8 11 20.2 11 37.3v87.7h-12.1z"/></g><g><path class="st1" d="M303.7 711.3L135.9 420.6l167.8-290.7h335.7l167.9 290.7-167.9 290.7z"/><path class="st2" d="M332.2 674.8L183 419.6l-81.8-139.9c-6-10.3-8.4-24.5-7.5-38l-86 148.9c-10.3 17.8-10.3 47 0 64.8l206.8 358.2c10.3 17.8 35.5 32.4 56.1 32.4h246.2c9.9-5.8 18.4-13.7 23.4-22.4l84.3-148.9H332.2z"/><path class="st3" d="M947.2 390.6L740.4 32.4l84 145.5z"/><path class="st3" d="M947.2 390.6L824.4 177.9c-10.6-6.5-22.8-10.7-33.8-10.7H624.2l144 253.8-143.7 253.8-84.3 148.9c-5 8.7-13.6 16.6-23.4 22.4h167.5c20.6 0 45.8-14.6 56.1-32.4l82.3-142.5 124.6-215.8c10.2-17.8 10.2-46.9-.1-64.8z"/><path class="st4" d="M740.4 32.4C730.1 14.6 704.9 0 684.3 0H270.6c-20.6 0-45.8 14.6-56.1 32.4L93.7 241.7c-.9 13.5 1.5 27.7 7.5 38L183 419.6l146-252.3h461.7c10.9 0 23.1 4.1 33.8 10.7L740.4 32.4z"/><path class="st1" d="M183 419.6l149.2 255.2h292.3L768.2 421l-144-253.7H329z"/><path class="st5" d="M98.9 232.6l-5.3 9.2c-.9 13.5 1.5 27.7 7.5 38L183 419.6l43.5-75.2L98.9 232.6z"/><path class="st6" d="M830 187.5l-5.5-9.5c-10.6-6.5-22.8-10.7-33.8-10.7H624.3l43.3 76.4L830 187.5z"/><path class="st7" d="M502.8 846.1h14.3c9.9-5.8 18.4-13.7 23.4-22.4l84.3-148.9h-89.7l-32.3 171.3z"/><path class="st8" d="M477.2 553.3c-72.1 0-130.8-58.7-130.8-130.8 0-72.1 58.7-130.8 130.8-130.8 72.1 0 130.8 58.7 130.8 130.8 0 72.1-58.7 130.8-130.8 130.8z"/><path class="st9" d="M477.2 293.5c71.2 0 129 57.7 129 129 0 71.2-57.7 129-129 129-71.2 0-129-57.7-129-129s57.8-129 129-129m0-3.7c-73.2 0-132.7 59.5-132.7 132.7 0 73.2 59.5 132.7 132.7 132.7s132.7-59.5 132.7-132.7c0-73.2-59.5-132.7-132.7-132.7z"/><path class="st8" d="M281.3 107.5c-13.9 0-25.2-11.3-25.2-25.2 0-13.9 11.3-25.2 25.2-25.2 13.9 0 25.2 11.3 25.2 25.2.1 13.9-11.3 25.2-25.2 25.2z"/><path class="st10" d="M281.3 58.9c12.9 0 23.4 10.5 23.4 23.4 0 12.9-10.5 23.4-23.4 23.4-12.9 0-23.4-10.5-23.4-23.4 0-12.9 10.5-23.4 23.4-23.4m0-3.7c-15 0-27.1 12.2-27.1 27.1 0 15 12.2 27.1 27.1 27.1 15 0 27.1-12.2 27.1-27.1 0-14.9-12.1-27.1-27.1-27.1z"/><circle class="st11" cx="671.6" cy="82.3" r="23.4"/><path class="st8" d="M281.3 784.2c-13.9 0-25.2-11.3-25.2-25.2 0-13.9 11.3-25.2 25.2-25.2 13.9 0 25.2 11.3 25.2 25.2.1 13.8-11.3 25.2-25.2 25.2z"/><path class="st12" d="M281.3 735.6c12.9 0 23.4 10.5 23.4 23.4 0 12.9-10.5 23.4-23.4 23.4-12.9 0-23.4-10.5-23.4-23.4 0-13 10.5-23.4 23.4-23.4m0-3.8c-15 0-27.1 12.2-27.1 27.1 0 15 12.2 27.1 27.1 27.1 15 0 27.1-12.2 27.1-27.1 0-14.9-12.1-27.1-27.1-27.1z"/><g><path class="st8" d="M671.6 784.2c-13.9 0-25.2-11.3-25.2-25.2 0-13.9 11.3-25.2 25.2-25.2 13.9 0 25.2 11.3 25.2 25.2 0 13.8-11.3 25.2-25.2 25.2z"/><path class="st13" d="M671.6 735.6c12.9 0 23.4 10.5 23.4 23.4 0 12.9-10.5 23.4-23.4 23.4-12.9 0-23.4-10.5-23.4-23.4 0-13 10.5-23.4 23.4-23.4m0-3.8c-15 0-27.1 12.2-27.1 27.1 0 15 12.2 27.1 27.1 27.1 15 0 27.1-12.2 27.1-27.1 0-14.9-12.2-27.1-27.1-27.1z"/></g><g><path class="st8" d="M868 447.7c-13.9 0-25.2-11.3-25.2-25.3 0-13.9 11.3-25.2 25.2-25.2 13.9 0 25.2 11.3 25.2 25.2.1 14-11.2 25.3-25.2 25.3z"/><path class="st13" d="M868 399.1c12.9 0 23.4 10.5 23.4 23.4 0 12.9-10.5 23.4-23.4 23.4-12.9 0-23.4-10.5-23.4-23.4.1-12.9 10.5-23.4 23.4-23.4m0-3.7c-15 0-27.1 12.2-27.1 27.1 0 15 12.2 27.1 27.1 27.1 14.9 0 27.1-12.2 27.1-27.1.1-15-12.1-27.1-27.1-27.1z"/></g><g><path class="st8" d="M84.5 447.7c-13.9 0-25.2-11.3-25.2-25.3 0-13.9 11.3-25.2 25.2-25.2 13.9 0 25.2 11.3 25.2 25.2 0 14-11.3 25.3-25.2 25.3z"/><path class="st12" d="M84.5 399.1c12.9 0 23.4 10.5 23.4 23.4 0 12.9-10.5 23.4-23.4 23.4-12.9 0-23.4-10.5-23.4-23.4 0-12.9 10.5-23.4 23.4-23.4m0-3.7c-15 0-27.1 12.2-27.1 27.1 0 15 12.2 27.1 27.1 27.1 15 0 27.1-12.2 27.1-27.1 0-15-12.1-27.1-27.1-27.1z"/></g></g></svg>