<svg xmlns="http://www.w3.org/2000/svg" viewBox="0 0 24 24"><path d="M24 4.557a9.846 9.846 0 0 1-2.829.775 4.937 4.937 0 0 0 2.166-2.724 9.89 9.89 0 0 1-3.127 1.194 4.925 4.925 0 0 0-8.391 4.492A13.976 13.976 0 0 1 1.671 3.149a4.923 4.923 0 0 0 1.523 6.575 4.933 4.933 0 0 1-2.231-.616v.061a4.926 4.926 0 0 0 3.949 4.828 4.943 4.943 0 0 1-2.222.084 4.927 4.927 0 0 0 4.599 3.42A9.887 9.887 0 0 1 0 19.54a13.944 13.944 0 0 0 7.547 2.212c9.057 0 14.011-7.502 14.011-14.009 0-.214-.005-.426-.017-.637A10.016 10.016 0 0 0 24 4.557z"/></svg>