<svg xmlns="http://www.w3.org/2000/svg" viewBox="0 0 1750.49 2041.46"><defs><style>.cls-1{fill:#fff;}</style></defs><title>Asset 6</title><g id="Layer_2" data-name="Layer 2"><g id="Layer_1-2" data-name="Layer 1"><path class="cls-1" d="M1084.8,1180.7a909.13,909.13,0,0,0,310.9,55.56c44.08.08,89-3.24,130-19.47,93.49-37,149.59-134.11,177.75-230.64,82.32-282.13-28.74-606.52-257.83-790.6S885.25-29.23,612.44,80.06s-481.06,359.39-554.29,644C31.83,826.37,21.8,932.31,20.21,1037.93c-3.09,205.61,27.08,416,123,597.92s264.24,332.34,465.75,373.33c158.58,32.26,323.2-3.91,476.48-55.81,155.86-52.78,312.63-127,412-258.19s122.39-332,13.84-455.65"/><path d="M1079.48,1200a916.64,916.64,0,0,0,181.5,46c61.45,9,125,14,187,8.19,57-5.3,109.07-23.36,153.45-60,38.86-32.07,68.4-75.22,89.95-120.44,43-90.19,60.64-192.75,59-292.23s-23-198.5-61.29-290.17c-38.59-92.3-93.35-177.53-163.05-249.47-71.42-73.71-158.28-132-252.65-172.09A881.78,881.78,0,0,0,969.54,1c-104.12-4.84-209.75,8.62-309,40.56-95.53,30.74-185.4,78.58-265,139.55A995.34,995.34,0,0,0,54,666.33C16,784.84,2.37,910.2.27,1034.21c-2,119.11,7,239,33,355.47,25,111.83,66.42,221.45,128.75,318,55.47,85.88,126.57,161.67,210.6,220.11,87.1,60.58,187.35,99,292.94,110.12,124.22,13,249.95-11,368.51-47,105.81-32.1,211.55-72,305.93-130.33,88.94-55,170.59-129.16,216.91-224.31,42.76-87.82,59.38-191.33,34.15-286.73a309.65,309.65,0,0,0-65.68-124.13c-7.09-8.16-21-7.26-28.28,0-8.09,8.09-7.1,20.11,0,28.28,58.61,67.48,75.38,161.89,61.15,248.41-15.75,95.79-64.53,179.07-134.73,245.27-74.4,70.15-166.9,119.09-261.3,156.66-106.84,42.52-219.93,78-334.43,91.63-109,13-220,4.08-321.66-39.24-89-37.91-167.6-97.39-232.51-168.7-68.7-75.47-121.16-164.68-157.45-259.9-40.68-106.74-62.66-219.9-71.38-333.58C35.68,1075.81,37.62,954.56,55.59,837,71.34,734.1,101.29,634,148.31,541A964,964,0,0,1,313.1,307.91c66-68.7,142.14-127.2,226.31-171.94A819.93,819.93,0,0,1,815.85,47.31a855.18,855.18,0,0,1,296.22,12.52c96.29,21.31,188.45,59.35,270.53,114.19,79,52.81,146.86,121.67,199.4,200.82a777,777,0,0,1,110.87,260c20.31,90.89,23.87,186.37,7.24,278.16-16.56,91.41-51.08,188.21-123.71,250.18-39.22,33.46-88,48.34-138.84,51.82-59.23,4.06-119.87-.12-178.42-9.51a916.94,916.94,0,0,1-169-44.1c-10.15-3.7-21.91,4.16-24.6,14-3.06,11.14,3.78,20.89,14,24.6Z"/><path class="cls-1" d="M932.52,890.77c66.6,17.81,112.69,80.51,134.43,145.93,23.72,71.39,23.79,152.79-11.34,219.31s-108.85,114.21-183.78,107.57"/><path d="M927.21,910.05c4.69,1.28,9.31,2.74,13.86,4.45,1.13.42,2.24.89,3.37,1.32,2.86,1.08-4.47-2-.13,0,2.4,1.1,4.79,2.2,7.15,3.39q6.09,3.08,11.89,6.68c4.26,2.63,9.5,5.37,13,8.94-.38-.38-3.43-2.75-.63-.48.94.76,1.88,1.51,2.8,2.27q2.51,2.07,4.95,4.23,6,5.31,11.52,11.09,4.82,5,9.3,10.35c1.42,1.69,2.8,3.42,4.19,5.13,3.18,3.9-2.5-3.45.48.62.87,1.19,1.77,2.37,2.64,3.57a257.25,257.25,0,0,1,16,25c4.75,8.47,10,17.5,13.16,26.71-1.77-5.13.87,2.19,1.37,3.45q1.36,3.44,2.62,6.91,2.83,7.73,5.23,15.61a329.69,329.69,0,0,1,8.47,33.87c1,5,1.78,10.08,2.57,15.14.88,5.65-.47-4.23.19,1.45.13,1.13.27,2.26.4,3.39q.57,5.08,1,10.18a300.69,300.69,0,0,1,.78,34q-.29,8.47-1.09,16.91c-.24,2.53-.57,5-.82,7.57-.35,3.37.76-4.86-.07.55-.26,1.67-.5,3.34-.78,5a252.78,252.78,0,0,1-7.89,33.6q-2.36,7.64-5.23,15.12c-.5,1.31-1.06,2.6-1.55,3.92-1.17,3.13,1.93-4.3-.27.67-1.26,2.83-2.53,5.65-3.89,8.44a207.39,207.39,0,0,1-15.87,27.27c-1.42,2.06-2.91,4.06-4.37,6.1-.55.76-2.23,3.06.4-.46-.75,1-1.55,2-2.34,2.94q-5,6.14-10.36,11.9a214.06,214.06,0,0,1-22,20.39c-.15.12-4.07,3.09-1.52,1.21,2.37-1.74-2.35,1.71-2.78,2q-3.34,2.41-6.77,4.69-7.15,4.75-14.69,8.89-7.17,3.94-14.66,7.27c-.22.1-4.73,1.93-1.7.75,2.87-1.11-2.61,1-3.12,1.2q-3.46,1.32-7,2.5-8.4,2.83-17,4.82-3.59.83-7.22,1.5-2.17.4-4.36.75l-1.46.23q-3.38.49.93-.12c-2.38-.38-5.68.62-8.08.79q-4.06.3-8.12.4a165.41,165.41,0,0,1-17.82-.57c-10.45-.88-20.46,9.82-20,20,.52,11.58,8.8,19.06,20,20,44.39,3.72,89.74-10.24,126.35-35.13,39.53-26.87,68.89-64.35,86.65-108.59,18.88-47,22.05-99,15.24-148.79-6.18-45.23-21.54-90.2-46.37-128.66-27.27-42.24-66.57-77.47-115.87-90.92-10.08-2.75-22.2,3.42-24.6,14s3.17,21.66,14,24.6Z"/><path class="cls-1" d="M448.38,724c-8.22-75.39,24.58-154,83.94-201.2s143.34-61.44,214.94-36.44"/><path d="M468.38,724a220.4,220.4,0,0,1-.36-42.9q.21-2.29.46-4.58a24.49,24.49,0,0,1,.36-3c0,.09-.56,3.84-.21,1.51.58-3.8,1.17-7.58,1.9-11.35q2-10.55,5.06-20.88t7-20.34a37,37,0,0,1,1.73-4.27c-1.93,3.51,0,0,.74-1.56q2.22-4.9,4.65-9.69,4.87-9.58,10.61-18.69,2.87-4.54,5.94-9,1.32-1.89,2.67-3.75.9-1.24,1.82-2.47c.28-.38,2.38-3.06.76-1s.07-.07.33-.39c.64-.79,1.28-1.59,1.93-2.39q1.46-1.78,3-3.53,3.74-4.37,7.7-8.54,7.4-7.79,15.54-14.82c2.53-2.18,5.12-4.29,7.74-6.36-3.12,2.47.35-.23,1.58-1.13q2.53-1.85,5.11-3.62a218.19,218.19,0,0,1,18.67-11.47c5.77-3.16,12.57-7.69,19-9.27-4.42,1.09.52-.19,1.74-.67q2.55-1,5.12-2,5.15-1.89,10.38-3.54,10.47-3.3,21.21-5.6,5.37-1.15,10.78-2.05c1.55-.26,3.1-.49,4.65-.72,2.31-.35,1.14-1.08-.65.08.62-.4,2.37-.29,3.11-.37a231.17,231.17,0,0,1,49.27-.26c1.47.15,4.15-.06,5.44.62-2.4-1.26-2.67-.39-.66-.07l3.09.48q6.18,1,12.3,2.37a221.31,221.31,0,0,1,24.1,6.85c9.9,3.41,22.31-3.9,24.6-14,2.54-11.13-3.37-20.95-14-24.6-61.67-21.27-130.8-15.37-189.27,12.77-58.12,28-101.39,80.12-122.54,140.58A240.43,240.43,0,0,0,428.38,724c1.09,10.37,8.42,20.52,20,20,9.9-.44,21.17-8.86,20-20Z"/></g></g></svg>