<svg xmlns="http://www.w3.org/2000/svg" viewBox="0 0 1764.93 2055.08"><defs><style>.cls-1{fill:#fff;}.cls-2{fill:#f2aaaa;}</style></defs><title>Asset 5</title><g id="Layer_2" data-name="Layer 2"><g id="Layer_1-2" data-name="Layer 1"><path d="M778.95,1356.67a1.5,1.5,0,0,0,0-3,1.5,1.5,0,0,0,0,3Z"/><path class="cls-1" d="M1513.58,1056.32c-10.31,36.35,8.06,80.17,36.85,93.58s63.48-2.26,81.57-33.44,20.08-74.73,8-110.23"/><path d="M1490.61,1050c-13.06,47.86,10.32,111.81,61.64,125.86,26.85,7.35,54-1.41,75.31-18.18,20.52-16.17,33.63-40.88,39.46-66.05a171.31,171.31,0,0,0-4-91.73c-3.92-11.8-16.61-20.74-29.29-16.63-11.75,3.8-20.84,16.64-16.63,29.29a146.29,146.29,0,0,1,4.25,15.42c.57,2.64,1,5.3,1.49,8,.57,3.11.95,0-.16-1.5.66.89.42,3.65.53,4.87a150.67,150.67,0,0,1,.63,16.32q-.07,4.08-.35,8.14c-.13,1.78.35,6.79-.8,8.07l.4-3.13q-.24,1.59-.52,3.18t-.59,3.16q-.78,3.91-1.8,7.77t-2.26,7.57q-.5,1.49-1,3t-1.11,2.92q-1.17,2.87,0,0l.59-1.42q-.63,1.41-1.3,2.8t-1.38,2.75q-1.77,3.4-3.8,6.65c-.54.87-4.41,5.37-4.31,6.24-.17-1.5,3.1-3.7.92-1.32-1.16,1.27-2.26,2.59-3.46,3.84q-2.26,2.36-4.71,4.54c-.89.79-2.65,1.78-3.29,2.76.27-.41,4.68-3.29,1.42-1.18-2,1.27-3.85,2.59-5.88,3.75q-1.19.68-2.42,1.32c-.73.38-6.17,2.82-2.09,1.11,3.88-1.63-2.27.74-3.45,1.1-2.12.64-4.27,1.07-6.42,1.57-4.58,1.07,5-.23,1.8-.19-1.08,0-2.17.2-3.25.25-2.38.11-4.78-.25-7.14-.16-3.14.12,6.37,1.26,1.81.25-.85-.19-1.71-.33-2.57-.53a61.68,61.68,0,0,1-6.34-1.91c-4.41-1.54,3.85,2.21,1.41.57-.82-.55-1.83-.91-2.69-1.4q-1.07-.6-2.1-1.25c-.78-.49-5-3.8-1.65-1s-1.54-1.38-2.41-2.2c-1.57-1.47-3.07-3-4.49-4.64-.72-.82-1.37-1.71-2.11-2.52-2.12-2.32,3.49,5,.92,1.1-1.48-2.28-3-4.5-4.35-6.88-1.14-2-2.11-4.09-3.16-6.15-2.31-4.52,1.94,5.34.19.54-.48-1.33-1-2.64-1.46-4a101.79,101.79,0,0,1-3.79-15.21c-.87-5,.43,4.74.19,1.35-.12-1.67-.31-3.34-.39-5q-.17-3.59,0-7.18.08-2.15.27-4.3c.18-2,1.66-5.86-.14.64.76-2.75,1.11-5.63,1.86-8.4,3.28-12-4.07-26.43-16.63-29.29s-25.78,3.77-29.29,16.63Z"/><path class="cls-1" d="M1307.25,1028.41c-4.48,22.11-9.05,44.8-6.45,67.45,2,17.5,9,34.56,21.54,47.15,12.36,12.38,29.39,18.4,46.72,14.76,18.49-3.89,34-16.69,44.49-32,11.52-16.8,18-36.38,24.34-55.54l2.75-8.27"/><path d="M1284.11,1022c-5,24.68-10.17,50.17-7.12,75.42,2.92,24.11,12.25,48.23,30.75,64.78,19.5,17.45,45.88,24.91,71.4,17.77,22.71-6.36,40.84-22,54.26-40.88,14.9-21,22.33-46.63,30.37-70.78,4-11.92-4.58-26.75-16.76-29.52-13.24-3-25.27,4-29.52,16.76-2.93,8.8-5.78,17.64-8.94,26.36q-1.19,3.27-2.44,6.52c-.56,1.45-2.47,8.34-.88,2.31-1.11,4.22-4,8.67-6.06,12.49-2.19,4-4.65,7.83-7.2,11.62-1.85,2.75-.27-1.06,1-1.23a18.17,18.17,0,0,0-1.91,2.35q-2,2.33-4.07,4.51t-4.39,4.22c-.76.68-1.54,1.31-2.31,2-3.34,2.92,1.1-1.09,1.26-1,0,0-10.09,6.08-11,6.61-2.21,1.28,2.27-.88,2.28-.89-.94.25-1.9.75-2.83,1.07a58.7,58.7,0,0,1-5.84,1.71c.18,0-3.11.69-3.12.65-.06-.3,6.29-.37,1.53-.25-2.41.06-4.79,0-7.19,0-3.25,0,4.85,1,1.68.28-.77-.17-1.55-.28-2.32-.45-2.06-.46-4-1.13-6-1.76-4.44-1.38,1.51.44,1.37.61s-3-1.54-2.82-1.43c-.93-.5-1.85-1-2.75-1.6s-4.73-2.13-1.52-.86c2.79,1.1.29.23-.72-.65-.61-.53-1.22-1.08-1.81-1.64-1.57-1.49-3-3.12-4.46-4.68-2.8-2.94.43.46.74,1.11a24,24,0,0,0-1.86-2.6c-1.35-2-2.59-4-3.74-6.13q-.77-1.4-1.47-2.83c-.41-.83-1.69-4.09-.45-.76s.22.54,0-.08c-.37-1-.75-2-1.09-3a88.26,88.26,0,0,1-3.38-13.18c-.17-1-.49-4.49-.17-.77.36,4.26-.09-1.4-.16-2.28-.23-2.91-.35-5.82-.37-8.74a157.44,157.44,0,0,1,.89-17.44c.13-1.29.3-2.58.44-3.87.31-3-.72,4.32.07-.37.48-2.88.92-5.77,1.43-8.65,1.08-6.06,2.3-12.09,3.52-18.12,2.49-12.27-3.53-26.51-16.76-29.52-12-2.72-26.86,3.6-29.52,16.76Z"/><path class="cls-2" d="M1022.51,1531.79A283.68,283.68,0,0,1,844,1442.44c-14.79-16.09-27.8-34-44.69-47.88s-39-23.52-60.44-19.22a879.28,879.28,0,0,1,56.59-83.08c10.56-13.75,21.5-27.23,32.89-40.29,12.09-13.86,15-13.53,32.32-7.41,51.62,18.21,94.51,57.54,121.48,104.7,30.85,54,42.08,117.09,41.2,178.94"/><path d="M1022.51,1508c-2.66-.28-5.32-.65-8-.92,7.53.77-1.68-.31-3.2-.57q-7.92-1.33-15.76-3.11a282.42,282.42,0,0,1-30.85-8.9c-4.66-1.64-10.9-3-15-5.75.42.28,5.13,2.24,1.25.51l-3.67-1.63q-4-1.82-8-3.77a286.5,286.5,0,0,1-28-15.73q-6.77-4.32-13.29-9c-2-1.41-3.88-2.86-5.81-4.3-2.81-2.09,4.58,3.66.38.28-1.25-1-2.51-2-3.75-3a274.33,274.33,0,0,1-23.6-21.77c-16.22-16.84-29.78-36.3-47.73-51.43-24.1-20.32-53.19-32.34-85-26.48l26.89,35q15.17-25.2,31.95-49.38,8.13-11.68,16.63-23.1,2.27-3,4.56-6.07l2.3-3c.27-.35,2.08-2.94.47-.62-1.74,2.51.64-.82,1.09-1.4l1.78-2.28q2.68-3.41,5.38-6.8,9.33-11.66,19.08-23c2.38-2.76,4.75-5.56,7.34-8.13.55-.54,1.16-1.05,1.69-1.61,2.59-2.7-2.42,2.18-2.44,1.79a10.51,10.51,0,0,1,1.52-1c2.81-1.23-3.61,1.43-3.43,1.36a8.14,8.14,0,0,1,1.53-.42c.49-.09-7.27.93-3.92.61a8.45,8.45,0,0,1,1.72.08c.27.49-6.13-1.24-4-.49,3.08,1.08,6.35,1.74,9.46,2.81,3.69,1.28,7.33,2.67,11,4.1,1.43.56,3.47,2.07-1.37-.59.67.37,1.44.63,2.14.94q3.2,1.43,6.35,3a212.63,212.63,0,0,1,20.37,11.41q4.93,3.13,9.7,6.52c1.69,1.2,3.35,2.47,5,3.68,2.13,1.53-1.75-1.38-1.72-1.35,1,.85,2,1.61,3.05,2.43a241.11,241.11,0,0,1,34.32,34c1.16,1.4,2.29,2.83,3.44,4.25,1.74,2.16,1.27,0-.86-1.12a13.15,13.15,0,0,1,1.87,2.5q3.48,4.7,6.74,9.56,6.94,10.35,12.84,21.34,3.11,5.79,5.95,11.73,1.32,2.76,2.58,5.56c.48,1.06.94,2.13,1.42,3.2,1.87,4.13-1.11-2.82,0-.05,3.34,8.4,6.49,16.84,9.19,25.48q4.43,14.2,7.56,28.77,1.58,7.28,2.85,14.63.68,3.89,1.27,7.8.2,1.3.39,2.61c.49,3.35-.14,2.48,0-.24-.23,5,1.26,10.68,1.71,15.72s.79,9.93,1.06,14.9c.55,10.22.72,20.46.59,30.69-.15,12.46,11.06,24.38,23.81,23.81,13-.58,23.65-10.46,23.81-23.81,1-79.62-17.61-160.55-67.16-224.27-21.57-27.74-49-51.64-80.2-68.05a257.46,257.46,0,0,0-27.68-12.39c-8.24-3.17-16.57-6.14-25.47-6.69-20.19-1.26-32.94,15.49-44.54,29.31a922.74,922.74,0,0,0-83.81,117.2c-4.95,8.22-3.87,19,1.86,26.45,6.16,8,15.36,10.32,25,8.53,5.57-1-5.52.05.11,0,1.08,0,2.15-.13,3.23-.15,1.34,0,2.69,0,4,.09,4.87.27-.29-.79-.71-.28.52-.63,6.33,1.27,7.14,1.49,2.63.69,5.87,2.61,8.55,2.82l-2.65-1.12q1.14.5,2.25,1,1.87.89,3.7,1.87c2.2,1.18,4.34,2.45,6.44,3.79,1.82,1.17,4.8,2.5,6.13,4.25l-2.21-1.71q1.33,1.06,2.64,2.17,2,1.71,4,3.5c16.82,15.32,30,34.07,46,50.23,32,32.38,71.17,56.75,113.75,72.51,24.2,9,49.36,14.17,75,16.83,12.43,1.29,24.35-11.87,23.81-23.81-.63-14-10.5-22.43-23.81-23.81Z"/><path class="cls-1" d="M855.63,852.83c45.86,3.89,89.86,12.89,136.86,23.89,1,0,3,2,4,2,98,24,181,65,268,114,18,10,36,18,54,26,40,17,83,23,126,21l13.61-.54c41.41-1.45,79.41-9.45,120.41-18.45,1,0,3-2,4-2a247.88,247.88,0,0,0,48-17l9-3c43-23,79-58,92.93-104.52l2.34-9.39c9.72-70.08,7.72-139.08-4.28-211.08-2-13-5-24-8-37-7-25-12-49-19-73-7-22-17-42-26-63-15-36-33-71-53-106-14-23-29-41-44-64-5-7-12-11-18-18-14-19-29-34-44-52-1-2-1-4-2-5-14-11-27-21-39-34-2-2-6-4-8-6-5-6-11-10-16-16-4-3-8-5-12-8-41-37-87-64-137-85-11-5-22-8-32-12-9-5-17-10-26-14-8-3-16-4-23-7a46.71,46.71,0,0,0-10-5c-10-3-19-5-29-9-4-1-9-2-13-3-16-6-32-9-49-13-1,0-3-2-4-2-37-9-72-11-109-16-15-2-29-1-44-1-31-1-63-1-94,1-6,1-12,1-18,2-9,1-17,5-25,6-70,8-137,25-203,50l-12,6c-2,1-3,0-5,1-32,15-62,31-94,45-9,12-25,15-36,26-10,5-19,12-29,18-7,5-14,10-21,16-11,7-20,12-31,19-65,45-110,98-159,158-19,25-34,50-50,77-8,12-15,22-22,33-13,21-22,41-32,62l-6,9c-25,57-46,114-61,174-8,11-9,24-12,37-6,24-10,45-14,69-3,19-6,36-7,55,0,2-2,4-2,6-1,10-1,19-3,29v10a532.23,532.23,0,0,0-4,69c-2,43-2,85,0,128,0,13,1,27,2,40,2,7,2,15,3,22,2,11,1,23,2,34,0,3,2,6,2,9,2,18,4,35,6,53,0,5,1,9,1,14,7,38,16,73,24,111,1,4,2,7,2,11,0,5,4,10,6,15l6,24c6,31,18,57,27,87,1,3,3,5,4,8,1,2,0,4,1,5,4,4,6,9,8,14,4,10,8,21,13,31,8,19,16,37,27,55,1,2,4,3,5,5,3,11,9,19,15,29,10,16,20,30,31,45l6,6c20,29,40,52,63,76,15,9,25,24,38,36,9,8,16,16,25,23,10,6,17,12,26,19,27,24,58,39,89,58,4,2,7,2,11,4,9,4,17,10,26,14,32,11,63,21,95,31,12,4,23,6,35,9,25,4,48,7,72,10,11,1,21,1,32,2,35,1,70-2,105-5,6-1,11-3,17-3,3-1,7-2,10-3,73-9,141-28,211-49,23-7,45-15,68-23,27-11,53-22,80-35,33-15,66-29,99-48,5-3,9-8,15-11,46-23,85-55,121.33-91.19l9.18-10.32c7.48-6.49,12.48-13.49,18.48-20.49,5-7,7-14,10-21,3-6,3-13,3-19,1-10,2-21,0-31,0-4-1-8-2-12-2-6-3-13-5-19-12-30-32-57-61-72l-6-6c-56-33-120-37-182-32l-33,3c-3,1-6,2-9,2-15,1-29,3-43,5-55,5-108,12-164,1-3,0-7,0-10-1-9-2-18-5-27-7l-9-3c-4-2-9-4-13-6-39-17-74-40-102-75-1-1-3-2-4-3s-1-3-2-4c-5-6-10-11-15-18-11-14-24-26-40-34a48.75,48.75,0,0,1-7-3,41.38,41.38,0,0,0-23.58-1.38l-18.42,11.38c127.78-135.16,182-325.81,142.57-500.82-7-30.81-17.58-62.62-42.31-84.49"/><path d="M855.63,876.83c28.79,2.53,57.23,7.25,85.53,13.07,13.75,2.83,27.38,6.38,41.14,9.08l3.8.89q-7.41-2.48,2.74,1.48c2.75,1,5.58,1.58,8.4,2.3q12.36,3.15,24.61,6.72c52.43,15.27,102.75,36.29,151.52,60.74,51.73,25.94,101,58.59,156,77.37,47.48,16.2,98.26,17.65,147.84,13.55,31.12-2.58,61.86-8.31,92.36-14.85,5.49-1.18,11.19-2.06,16.51-3.84l5.73-2.42q-6.3,1.87.64.05c3.6-.86,7.16-1.92,10.7-3,13.57-4.18,26.39-10.27,39.67-15.1,23.94-8.72,46.7-26.47,64.75-44.21a187.43,187.43,0,0,0,41.68-61c9.07-21.64,11.33-43.86,13.31-67.14a665.56,665.56,0,0,0,1.37-91.53,817.12,817.12,0,0,0-10.35-91.6c-5-29.78-13.64-59.14-21.13-88.37-7.9-30.81-20.77-59-33.33-88.11a1053.76,1053.76,0,0,0-46.32-94.7A433.89,433.89,0,0,0,1626.74,355c-9.71-13.62-18.76-28.28-29.28-41.25-4.71-5.81-10.65-10.07-15.71-15.5-4.85-5.21-9-11.29-13.53-16.79-10.64-12.81-22-25-32.76-37.7l6.17,10.59c-4.83-13.88-13.63-19.62-24.49-28.57-8.61-7.09-16.11-15.27-24.49-22.52-7-6-5.17-3.82-10.67-9.25-3-3-6.21-5.88-9.32-8.79-8.85-8.29-19.36-15.27-28.8-23a503.46,503.46,0,0,0-117.73-72.08c-10.43-4.59-20.88-9.1-31.63-12.89-11.16-3.94-20.35-9.59-30.93-14.85-9.52-4.73-21.67-6.8-30.37-10.84-10.71-5-21.38-7.93-32.59-11.49-22.37-7.1-45.06-13.82-68.11-18.6-7.64-1.59-2.32-.54-.64.09-4.68-1.77-6.31-2.7-10.81-3.84-5-1.28-10.1-2.22-15.16-3.18C1092,11.87,1078,10,1064,8.22c-24-3-48.67-7.34-72.87-7.73C965.63.09,940-.18,914.55.14,889.83.44,863-.08,838.94,6.23c-22.58,5.91-45.81,7.86-68.8,12A854.66,854.66,0,0,0,628,57.28c-23.06,8.47-44,18.52-66.51,29.64-10.9,5.38-21.8,10.77-32.78,16q-7.82,3.73-15.69,7.33c-3.4,1.55-7.41,2.8-10.6,4.74-3.58,2.18-5.74,5.42-8.8,8.11-4.69,4.13-14,8-20.09,12.11-9.59,6.46-19,12.74-28.76,19.13-10.46,6.83-19.93,14.84-30.2,21.88-9.36,6.42-19.66,11.5-29.14,17.76-37.5,24.78-71.17,56.19-101.65,89.06-31.26,33.71-61.92,69.2-87.16,107.67-13.14,20-24.77,41-38.18,60.8A481.32,481.32,0,0,0,123.09,513c-5,10.42-10.91,20.19-16.09,30.4-6.33,12.46-11.18,26-16.45,38.91C81.33,604.89,72.74,627.78,65,650.95q-5.66,16.91-10.72,34C51,695.92,49,707.78,44.9,718.4c-4.21,10.89-8.52,20.24-10.86,31.84-2.52,12.48-5.77,24.8-8.36,37.27-4.74,22.88-8.64,46-11.83,69.13-1,6.95-1.88,13.9-2.54,20.89,0,.3-.34,12.28.19,5.25.5-6.58-1.59,3.2-2.15,5.56-1.47,6.13-1.37,12.83-1.85,19.1-.51,6.56-1.78,13-2,19.54-.86,25.24-3.39,50.41-4,75.74-.6,24.57-1.64,49.07-1.47,73.66.18,25.36.72,50.86,2.2,76.18,1.32,22.69,4.92,44.63,5.87,67.46.44,10.45,2.94,20.56,4.11,30.93,1.43,12.58,3.13,25.16,4.29,37.77,2.35,25.75,7.78,50.66,13.48,75.88,2.63,11.62,5.3,23.24,7.89,34.87,1.25,5.61,2.43,11.23,3.68,16.84,1.73,7.78,1.32,10.59,3.24,17.79,1.39,5.24,5,9.68,6.6,14.73,1.39,4.39,2.1,9.77,3.26,14.41,3,11.83,5.41,23.71,9,35.38,7.28,23.51,16.06,46.62,24.85,69.47-.5-1.3-.24,1.78-.16,2,2.38,6.54,2.85,5.09,6.39,10.95,2,3.34,3.21,7.1,4.63,10.71,4.74,12.07,10.12,23.83,15.23,35.74,8.91,20.78,18.07,41.16,32.92,58.19l-6.17-10.59c5.94,19.36,18.16,36.59,29.48,53.17s23.84,31.64,35.67,47.57q18.49,24.9,39.29,47.93c7.25,8,14.3,16.09,23,22.55,6.67,5,12.33,10.93,18,17.08,13.2,14.35,27.56,29.87,43.64,41,15.68,10.89,30,23.39,45.5,34.5,16.25,11.63,33.68,21.45,50.93,31.48,16.34,9.51,33.06,17.24,49.69,26.1,19.3,10.28,42,15.67,62.74,22.39,20.3,6.58,40.61,13.81,61.37,18.82,41.5,10,85.26,15,127.88,17,22,1,44.19-.34,66.11-1.87,21.45-1.5,43.89-2.2,64.68-7.74,19-5.06,40.53-6.78,60.58-10.57,21.07-4,42-8.72,62.81-13.95,84.43-21.24,166.61-48.32,245.42-85.46,19.28-9.08,38.9-17.43,58.14-26.61,9.77-4.66,19.46-9.48,29-14.58,9.89-5.28,18.16-11.51,27.34-17.76,7.1-4.83,15.52-8.2,23-12.52q12.71-7.38,24.84-15.7a533.07,533.07,0,0,0,48.4-37.62c12.33-10.73,24.89-21.73,35.77-34,10.32-11.59,22.59-22.14,30.63-35.56,20.52-34.25,19.19-80.78,6.45-117.49-6.3-18.14-16.54-34.91-28.42-49.87-11.74-14.77-26.09-23.92-40.91-35-6.38-4.78-14.5-11-22.86-15.09a280.32,280.32,0,0,0-30-12.69c-19.49-7-39.66-11-60.14-13.66-39.72-5.14-79.47-2.63-119.16,1.4-19.22,1.95-39.24,5.56-59.5,7.69-21.46,2.25-43,4.26-64.55,5.51s-43.15,1.5-64.64-.46-35.83-5-54.85-9.89c-30.53-7.92-63.5-26-88.32-46.89-14.5-12.2-25.67-28.08-40.7-39.35l8.61,8.61c-3.82-7.64-10-13.48-15.4-20s-10.32-13.29-16.29-19.34a150.51,150.51,0,0,0-19.78-16.66A124.23,124.23,0,0,0,775.64,1357c-15.6-6.62-34.71-10.47-50.55-1.95-6.07,3.27-11.85,7.32-17.72,10.95l29.08,37.69c121.28-129,181.41-308.44,156.09-484.25-6.92-48-18.52-100.9-55.84-135-9.57-8.74-24.48-9.46-33.94,0-8.86,8.86-9.61,25.17,0,33.94,28.42,26,35.81,66.62,41.83,103,6.23,37.69,7.51,77.52,4.84,116.23-5.32,77.15-28.8,154.09-66.61,222.15a550.67,550.67,0,0,1-80.31,110c-18.19,19.35,5.19,52.45,29.08,37.69l10-6.19c2.08-1.29,4.4-2.45,6.35-3.92.41-.31,1.68-.7,1.87-1.15-1.44,3.57-9.5,1.12-.3,2.16,14.47,1.64,30.36,18,39.89,29.76,2.88,3.54,5.56,7.24,8.51,10.74a93.21,93.21,0,0,1,6.82,9c2.4,3.68,8.56,8.92,9.87,10.46,3.56,4.2,7.15,8.37,10.95,12.36a269,269,0,0,0,47.79,39.27c32.72,21.36,72.88,40.7,112.12,44.68,22.49,2.28,45.35,5.9,68.42,6,23.41.06,46.76-1.81,70.06-4,83.54-7.74,170.8-28.93,252.73.35,9,3.21,18.27,6.95,26.42,12,3.73,2.29,6.29,5,9.83,7.67,4.83,3.66,10.45,6.14,15.37,9.75,12.71,9.33,22.68,22.29,30.42,36.35A113.41,113.41,0,0,1,1472.6,1671c.84,18.72-1.24,36.92-13.59,51.62-21.74,25.88-47.45,49.65-74.12,70.33a390,390,0,0,1-51.14,33.58,240.57,240.57,0,0,0-26.28,16.74c-7.9,5.72-19,10.73-28.4,15.47-40.74,20.62-82.9,39.55-125,57.23-42.54,17.86-86.82,31.37-131.14,44s-89.09,24-134.59,31.62c-11.27,1.88-23.1,2.51-34.23,5-8.86,2-16.71,4.39-26.45,5.64-23.68,3.05-48.09,4-71.94,4.54-44.23,1-90.55-3.25-133.68-13.29-22.51-5.24-44.41-12.56-66.39-19.66-20-6.47-42.35-11.41-60.62-22-9.15-5.29-19.05-8.36-28.31-13.06-8.68-4.41-17.73-11-26.43-16-18.05-10.49-36-21.2-52.11-34.62-15.3-12.78-31.71-23.41-46-37.2-7.32-7-14.56-14-21.45-21.46-7.85-8.54-16.38-15.13-25-22.76-15-13.28-28.18-30.19-40.66-45.85-6.26-7.86-11.86-16.16-17.81-24.24s-12.85-15.29-18.78-23.71c-12.1-17.15-23.24-34.49-32-53.42-1.95-4.21-6.06-8.27-8.12-11-2.82-3.79-4.9-8.56-7.09-12.73-5.55-10.57-10.46-21.46-15.17-32.43-8.06-18.79-14.1-41-27.58-56.52l6.17,10.59c-1.68-7.14-5.15-13.25-7.21-20.13-2.79-9.28-6.24-18.39-9.45-27.53a444,444,0,0,1-15-50.5c-1.91-8.54-3.64-17.53-6.37-25.85-1.37-4.15-4.06-7.8-5.48-11.87.48,1.37-1-7.76-1.46-10q-5.82-26.19-11.77-52.37c-4.16-18.33-8.68-36.71-11.86-55.24-3-17.37-3.86-35.4-5.85-53-1.05-9.26-2.87-18.47-4.05-27.61-.9-7-.11-14.9-.66-22.21-1.27-16.88-4.44-33.48-5.37-50.41-2.07-37.57-2.62-75.38-1.82-113,.79-37.11,3.53-74.08,5.09-111,.07-1.64,2.16-28.13,2.76-28.26-.12,0-3.46,9.66-.25,1.54a31.29,31.29,0,0,0,2.16-8.06c.77-5.37.9-10.81,1.44-16.21,1.68-16.89,4.71-33.71,7.68-50.41,3.24-18.21,7.32-36.17,11.46-54.19,1.7-7.4,2.58-15.14,5-22.35,1.17-3.5,2.85-5.62,4.59-8.91,2.74-5.19,3.76-11.1,5.24-16.72A1011.61,1011.61,0,0,1,127.81,617.8c6.25-16.24,12.47-32.71,19.87-48.47,3.86-8.23,9.05-15.71,13-24S168.42,529,172.54,521c8.35-16.28,18.05-31.56,28.29-46.7,10-14.84,18.89-30.36,28.38-45.55,18.05-28.88,38.87-55,61-80.81,21.46-25.06,43.87-49.36,68.29-71.59C369.89,266,381.65,255.92,394,246.69c14.43-10.79,30.08-19.22,45-29.22,14.5-9.73,27.87-20.87,42.84-30.06,6.83-4.19,13.05-9.12,19.71-13.15,6.36-3.84,12.95-7.11,18.93-11.55,3.15-2.34,6.14-5.82,9.4-7.77s7.37-3.23,10.85-4.83c9.3-4.29,18.53-8.74,27.73-13.24,15.94-7.8,32.22-17.72,48.78-23.62,16-5.71,31.93-12.9,48.34-18.4q25.69-8.61,51.88-15.63a797.37,797.37,0,0,1,107.31-21c17-2.11,32.92-7.6,50.08-8.74,19.07-1.27,38.33-1.44,57.44-1.34,18.42.1,36.81.35,55.23.39,18.76,0,37.38,3.22,56,5.34,17.89,2,35.75,4.18,53.42,7.7,4.42.88,8.85,2.21,13.3,2.9,4.61.71-.14-.11-1.08-.48,1.65.66,4.72,2.21,7,2.94,8.59,2.76,17.86,4,26.61,6.19,16.83,4.25,33.25,9.83,49.89,14.68,7.12,2.08,12.69,3.42,17.56,6,8.55,4.48,17.6,5.7,26.51,9,7.79,2.88,14.67,8,22,11.82,8.34,4.31,17.45,6.95,26.26,10.12,15.4,5.55,30.32,12.73,44.9,20.14,29.3,14.88,57.5,32.45,82.73,53.57,12.78,10.7,26,20.12,37.72,31.89,6.77,6.81,10.21,8.75,16.28,14.72s12.61,11.54,19.25,16.92c2.5,2,6.38,6.72,9.5,7.54l1.38,1.08q-2.69-6.54-.18-.54a63,63,0,0,0,5,7.72c6,7.44,12.53,14.5,18.87,21.66,11.11,12.55,20.84,27.16,33.32,38.3s20.9,26.65,30.53,40.11a463.22,463.22,0,0,1,29,46c18.36,33.27,33.82,67.55,49.26,102.22,6.71,15.06,13.6,30.07,18.32,45.91,5.35,18,9.36,36.32,14,54.47,9.3,36.27,16.3,72.17,19.5,109.53a674.67,674.67,0,0,1,.38,112.67c-2.21,26.93-5.95,48.58-20.51,71.27s-37.22,42.25-61.54,55.22c-13.35,7.12-29.36,12.76-44,17.15-4.12,1.23-8.49,2-12.56,3.37-2.39.81-4.63,2.06-7,2.94,1.78-.66,7.12-1.68-.84-.1-9.46,1.88-18.86,4.1-28.32,6-60,12.15-125.77,18.73-185.45,1.62-34.34-9.85-65.85-27.51-96.94-44.68s-62.59-33.63-94.84-48.53a965.48,965.48,0,0,0-99-39.67q-24.83-8.28-50.18-14.9c-2.36-.61-4.74-1.28-7.12-1.82-1.67-.37-6.88-2.56-.59.05a76.21,76.21,0,0,0-12.69-4.26Q979.12,849,965,846c-36.12-7.76-72.59-13.88-109.4-17.12-12.93-1.14-24,11.84-24,24,0,13.93,11,22.86,24,24Z"/><ellipse cx="578.49" cy="523.22" rx="35" ry="48.5"/><path d="M589.49,523.22c0,2.12-.19,4.21-.29,6.32-.27,5.28.91-4.38.13-1.05-.23,1-.37,2-.6,2.95q-.65,2.87-1.58,5.65c-.3.91-.66,1.79-1,2.69-1,2.78,2.5-4.88.45-1.26-1,1.77-2,3.51-3,5.25-2.79,4.64,3.5-3.54-.16.24-1.14,1.18-2.39,2.28-3.51,3.45-2,2.14,5.27-3.36,1.54-1.22-.84.48-1.68,1-2.5,1.49-4.24,2.56,5.23-1.33.45-.24-.73.17-1.5.32-2.21.55-2.72.87,5.83-.11,3-.4a24.25,24.25,0,0,0-2.88,0c-2.23.06-2.22-1.53,3,.47-1.07-.41-6.73-2.28-2.58-.42,4.32,1.94-.91-.7-1.75-1.18-2.28-1.3-1.62-2.65,1.5,1.3a19.26,19.26,0,0,0-1.82-1.62c-1.12-1.07-2.15-2.79-3.39-3.67.38.27,3.34,4.95,1.44,1.75-.68-1.14-1.44-2.23-2.1-3.39-.45-.79-.84-1.61-1.27-2.41-1.1-2.06.21-2.09.71,1.92-.22-1.74-1.38-3.72-1.88-5.43-.56-1.91-1-3.84-1.39-5.78-.9-4,.17,1.3.16,1.85,0-1.5-.31-3.17-.38-4.68-.1-2.12-.1-4.25,0-6.38,0-1,.15-2.09.22-3.13.15-2.08,1.31-2.89-.26,1.8,1.35-4,2.42-8.59,3.53-12.7-.13.49-2.61,5.24-.71,1.92.45-.79.83-1.62,1.27-2.41.81-1.43,2.28-3,2.85-4.46-1.41,3.77-3,3.54-1.37,1.85.58-.6,1.11-1.24,1.7-1.84s1.2-1.11,1.78-1.69c3.08-3.12-4.58,2.86-1.08.83,1.3-.75,2.83-1.42,4.05-2.27-4.61,3.19-4.55,1.66-2.54,1.18.69-.17,1.5-.37,2.19-.6,3.77-1.22-3.27.69-3,.33s2.4-.06,2.88-.09c1.05-.07,3.94.39-.34-.19-4.47-.6-.89-.06.16.22a19.24,19.24,0,0,0,2.17.69c-4.55-.61-4.37-2.07-1.56-.5.68.38,1.32.84,2,1.22,3.65,2.07-4.07-3.9-1.08-.83,1.29,1.33,2.58,2.7,3.88,4,2,2.05-2.86-4.35-1.4-1.8.54.95,1.23,1.83,1.8,2.77s1.12,2,1.64,3c1.74,3.4.07.43-.4-1.31.62,2.31,1.65,4.52,2.27,6.85.26,1,.49,1.92.69,2.89l.3,1.47q.66,3.9-.16-1.85c-.65,1.4.44,6.26.46,7.87.15,12.55,10.93,24.59,24,24,12.88-.58,24.16-10.55,24-24-.3-25.58-11.4-54.93-35.82-66.75-12.28-5.94-26.57-7.79-39.57-2.88-13.16,5-23.5,14-30.9,26-14.89,24-14.88,55.43-3.47,80.69,10.93,24.19,37.13,41,63.92,33.71,30.57-8.3,45.5-41.41,45.84-70.73.15-12.56-11.14-24.58-24-24C600.36,499.81,589.64,509.77,589.49,523.22Z"/></g></g></svg>